<svg width="77" height="47" viewBox="0 0 77 47" fill="none" xmlns="http://www.w3.org/2000/svg">
<path d="M7.432 10.136V14.312C7.432 14.952 7.496 15.424 7.624 15.728C7.768 16.016 8.008 16.208 8.344 16.304C8.696 16.4 9.248 16.456 10 16.472V17C8.032 16.952 6.568 16.928 5.608 16.928C4.808 16.928 3.8 16.944 2.584 16.976L1.816 17V16.52C2.344 16.488 2.728 16.424 2.968 16.328C3.224 16.232 3.392 16.048 3.472 15.776C3.568 15.504 3.616 15.064 3.616 14.456V2.55199C3.616 1.94399 3.568 1.50399 3.472 1.232C3.392 0.959995 3.224 0.775995 2.968 0.679996C2.728 0.583995 2.344 0.519995 1.816 0.487995V0.00799561C2.632 0.055995 3.848 0.0799947 5.464 0.0799947L8.128 0.055995C8.448 0.0399952 8.816 0.0319953 9.232 0.0319953C11.392 0.0319953 13.04 0.463995 14.176 1.32799C15.312 2.17599 15.88 3.31999 15.88 4.75999C15.88 5.64 15.656 6.488 15.208 7.304C14.76 8.104 14 8.776 12.928 9.31999C11.872 9.864 10.464 10.136 8.704 10.136H7.432ZM8.92 0.487995C8.488 0.487995 8.168 0.543995 7.96 0.655994C7.768 0.767995 7.632 0.967995 7.552 1.256C7.472 1.544 7.432 1.976 7.432 2.55199V9.656H8.464C9.76 9.656 10.656 9.24 11.152 8.408C11.648 7.57599 11.896 6.448 11.896 5.024C11.896 3.472 11.664 2.328 11.2 1.592C10.752 0.855995 9.992 0.487995 8.92 0.487995Z" fill="#FF5707"/>
<path d="M19.5977 17.168C18.5737 17.168 17.8058 16.904 17.2938 16.376C16.7978 15.848 16.5498 15.152 16.5498 14.288C16.5498 13.568 16.7337 12.976 17.1017 12.512C17.4857 12.032 17.9417 11.664 18.4697 11.408C19.0137 11.152 19.7018 10.88 20.5338 10.592C21.4138 10.288 22.0538 10.016 22.4538 9.776C22.8698 9.52 23.0778 9.176 23.0778 8.744V6.87199C23.0778 6.2 22.9178 5.68 22.5978 5.312C22.2938 4.928 21.8138 4.73599 21.1578 4.73599C20.3898 4.73599 19.8058 4.928 19.4058 5.312C19.8538 5.472 20.1977 5.712 20.4377 6.032C20.6937 6.352 20.8218 6.728 20.8218 7.16C20.8218 7.704 20.6378 8.136 20.2698 8.456C19.9018 8.776 19.4538 8.936 18.9258 8.936C18.3658 8.936 17.9337 8.75999 17.6297 8.408C17.3257 8.05599 17.1737 7.616 17.1737 7.088C17.1737 6.64 17.2778 6.264 17.4858 5.96C17.7098 5.64 18.0457 5.344 18.4937 5.072C18.9257 4.816 19.4538 4.616 20.0778 4.472C20.7178 4.328 21.4138 4.256 22.1658 4.256C22.9498 4.256 23.6298 4.336 24.2058 4.496C24.7818 4.65599 25.2617 4.928 25.6458 5.312C25.9977 5.664 26.2298 6.09599 26.3418 6.608C26.4698 7.12 26.5338 7.816 26.5338 8.696V15.224C26.5338 15.608 26.5658 15.88 26.6298 16.04C26.7098 16.2 26.8538 16.28 27.0618 16.28C27.3018 16.28 27.5898 16.144 27.9258 15.872L28.1658 16.28C27.4458 16.872 26.5658 17.168 25.5258 17.168C24.6458 17.168 24.0297 16.992 23.6777 16.64C23.3257 16.288 23.1417 15.816 23.1257 15.224C22.3257 16.52 21.1497 17.168 19.5977 17.168ZM21.4458 15.632C22.0698 15.632 22.6138 15.304 23.0778 14.648V9.728C22.8858 10.048 22.4778 10.4 21.8538 10.784C21.2298 11.184 20.7577 11.584 20.4377 11.984C20.1177 12.384 19.9578 12.96 19.9578 13.712C19.9578 14.368 20.0938 14.856 20.3658 15.176C20.6378 15.48 20.9978 15.632 21.4458 15.632Z" fill="#FF5707"/>
<path d="M36.8676 4.256C37.5876 4.256 38.1316 4.472 38.4996 4.904C38.8676 5.336 39.0516 5.856 39.0516 6.464C39.0516 7.056 38.8756 7.544 38.5236 7.928C38.1876 8.296 37.7396 8.48 37.1796 8.48C36.6356 8.48 36.2036 8.344 35.8836 8.072C35.5636 7.784 35.4036 7.408 35.4036 6.94399C35.4036 6.176 35.7556 5.552 36.4596 5.072C36.3956 5.056 36.2996 5.048 36.1716 5.048C36.0116 5.048 35.8836 5.06399 35.7876 5.09599C35.1796 5.192 34.6596 5.56 34.2276 6.2C33.8116 6.83999 33.6036 7.496 33.6036 8.168V14.528C33.6036 15.264 33.7796 15.776 34.1316 16.064C34.4996 16.352 35.0756 16.496 35.8596 16.496V17C35.6356 17 35.4516 16.992 35.3076 16.976C33.6756 16.928 32.5876 16.904 32.0436 16.904C31.6116 16.904 30.6276 16.928 29.0916 16.976C28.9636 16.992 28.8036 17 28.6116 17V16.496C29.1876 16.496 29.5876 16.376 29.8116 16.136C30.0356 15.88 30.1476 15.424 30.1476 14.768V7.208C30.1476 6.472 30.0356 5.936 29.8116 5.6C29.5876 5.264 29.1876 5.09599 28.6116 5.09599V4.592C29.1236 4.64 29.6196 4.664 30.0996 4.664C31.5236 4.664 32.6916 4.552 33.6036 4.328V6.55999C33.9076 5.87199 34.3476 5.32 34.9236 4.904C35.4996 4.472 36.1476 4.256 36.8676 4.256Z" fill="#FF5707"/>
<path d="M42.7427 17.168C41.7187 17.168 40.9507 16.904 40.4387 16.376C39.9427 15.848 39.6947 15.152 39.6947 14.288C39.6947 13.568 39.8787 12.976 40.2467 12.512C40.6307 12.032 41.0867 11.664 41.6147 11.408C42.1587 11.152 42.8467 10.88 43.6787 10.592C44.5587 10.288 45.1987 10.016 45.5987 9.776C46.0147 9.52 46.2227 9.176 46.2227 8.744V6.87199C46.2227 6.2 46.0627 5.68 45.7427 5.312C45.4387 4.928 44.9587 4.73599 44.3027 4.73599C43.5347 4.73599 42.9508 4.928 42.5508 5.312C42.9988 5.472 43.3427 5.712 43.5827 6.032C43.8387 6.352 43.9668 6.728 43.9668 7.16C43.9668 7.704 43.7827 8.136 43.4147 8.456C43.0467 8.776 42.5987 8.936 42.0707 8.936C41.5107 8.936 41.0787 8.75999 40.7747 8.408C40.4707 8.05599 40.3187 7.616 40.3187 7.088C40.3187 6.64 40.4227 6.264 40.6307 5.96C40.8547 5.64 41.1907 5.344 41.6387 5.072C42.0707 4.816 42.5987 4.616 43.2227 4.472C43.8627 4.328 44.5587 4.256 45.3107 4.256C46.0947 4.256 46.7747 4.336 47.3507 4.496C47.9267 4.65599 48.4067 4.928 48.7907 5.312C49.1427 5.664 49.3747 6.09599 49.4867 6.608C49.6147 7.12 49.6787 7.816 49.6787 8.696V15.224C49.6787 15.608 49.7107 15.88 49.7747 16.04C49.8547 16.2 49.9987 16.28 50.2067 16.28C50.4467 16.28 50.7347 16.144 51.0707 15.872L51.3107 16.28C50.5907 16.872 49.7107 17.168 48.6707 17.168C47.7907 17.168 47.1748 16.992 46.8228 16.64C46.4708 16.288 46.2867 15.816 46.2707 15.224C45.4707 16.52 44.2947 17.168 42.7427 17.168ZM44.5907 15.632C45.2147 15.632 45.7587 15.304 46.2227 14.648V9.728C46.0307 10.048 45.6227 10.4 44.9987 10.784C44.3747 11.184 43.9027 11.584 43.5827 11.984C43.2627 12.384 43.1027 12.96 43.1027 13.712C43.1027 14.368 43.2387 14.856 43.5107 15.176C43.7827 15.48 44.1427 15.632 44.5907 15.632Z" fill="#FF5707"/>
<path d="M56.5086 4.256C57.1166 4.256 57.6766 4.336 58.1886 4.496C58.7006 4.64 59.0926 4.808 59.3646 5C59.5246 5.112 59.6686 5.16799 59.7966 5.16799C59.9406 5.16799 60.0606 5.09599 60.1566 4.95199C60.2686 4.792 60.3406 4.568 60.3726 4.27999H60.8766C60.8126 5.09599 60.7806 6.504 60.7806 8.504H60.2766C60.1326 7.448 59.8126 6.568 59.3166 5.864C58.8366 5.144 58.1326 4.784 57.2046 4.784C56.7246 4.784 56.3246 4.92 56.0046 5.192C55.7006 5.464 55.5486 5.83999 55.5486 6.31999C55.5486 6.864 55.7326 7.336 56.1006 7.736C56.4686 8.12 57.0446 8.59199 57.8286 9.15199L58.5246 9.656C59.5006 10.392 60.2206 11.048 60.6846 11.624C61.1486 12.2 61.3806 12.92 61.3806 13.784C61.3806 14.488 61.1726 15.112 60.7566 15.656C60.3566 16.2 59.8126 16.616 59.1246 16.904C58.4366 17.192 57.6766 17.336 56.8446 17.336C55.9646 17.336 55.2126 17.168 54.5886 16.832C54.0766 16.576 53.7086 16.408 53.4846 16.328C53.3246 16.28 53.1806 16.336 53.0526 16.496C52.9406 16.64 52.8526 16.864 52.7886 17.168H52.2846C52.3486 16.256 52.3806 14.656 52.3806 12.368H52.8846C53.2046 15.312 54.2846 16.784 56.1246 16.784C56.5886 16.784 56.9806 16.648 57.3006 16.376C57.6366 16.088 57.8046 15.656 57.8046 15.08C57.8046 14.632 57.7006 14.232 57.4926 13.88C57.3006 13.528 57.0526 13.216 56.7486 12.944C56.4446 12.672 55.9886 12.296 55.3806 11.816C54.6606 11.24 54.1086 10.776 53.7246 10.424C53.3566 10.072 53.0366 9.656 52.7646 9.176C52.5086 8.696 52.3806 8.16 52.3806 7.568C52.3806 6.544 52.7806 5.736 53.5806 5.144C54.3806 4.552 55.3566 4.256 56.5086 4.256Z" fill="#FF5707"/>
<path d="M14.3008 27.6914H0.859375V26.2852H14.3008V27.6914ZM13.3633 34.1719C13.3633 35.0312 13.1055 35.8437 12.5898 36.6094C12.1133 37.3203 11.4844 37.9023 10.7031 38.3555C9.92188 38.8008 9.19922 39.0234 8.53516 39.0234C7.88672 39.0234 7.07812 38.6602 6.10938 37.9336C5.64062 37.582 4.95312 36.9766 4.04688 36.1172V46.0547L2.17188 45.0703V29.5664H4V32.4258L4.71484 31.6758C6.36328 29.9492 7.69922 29.0859 8.72266 29.0859C9.83203 29.0859 10.8906 29.6602 11.8984 30.8086C12.875 31.9258 13.3633 33.0469 13.3633 34.1719ZM12.2031 32.8125C12.2031 32.2187 11.8945 31.6484 11.2773 31.1016C10.9727 30.8281 10.5859 30.6914 10.1172 30.6914C9.19531 30.6914 8.05078 31.25 6.68359 32.3672C5.27734 33.5156 4.57422 34.5352 4.57422 35.4258C4.57422 35.9492 5.0625 36.4102 6.03906 36.8086C6.47656 36.9883 6.90234 37.0781 7.31641 37.0781C8.67578 37.0781 9.85547 36.5547 10.8555 35.5078C11.7539 34.5703 12.2031 33.6719 12.2031 32.8125Z" fill="#FF5707"/>
<path d="M25.0473 27.6914H17.2427V29.5664C17.2739 29.5664 17.3052 29.582 17.3364 29.6133C17.3677 29.6445 17.395 29.6602 17.4184 29.6602C17.3559 29.6602 17.3208 29.6562 17.313 29.6484C17.313 29.6094 17.895 29.4844 19.0591 29.2734C19.4888 29.1953 19.9145 29.1562 20.3364 29.1562C22.0942 29.1562 23.2231 29.6484 23.7231 30.6328C24.0591 31.2891 24.227 32.6133 24.227 34.6055V39.1172C24.063 39.0547 23.4419 38.8008 22.3638 38.3555C22.3638 38.1055 22.313 37.9453 22.2114 37.875C21.7973 38.1172 21.4575 38.3008 21.1919 38.4258C20.3481 38.8242 19.3677 39.0234 18.2505 39.0234C16.7114 39.0234 15.5239 38.5391 14.688 37.5703C14.2817 37.1016 14.0786 36.5781 14.0786 36C14.0786 35.3516 14.3989 34.707 15.0395 34.0664C16.2817 32.8242 17.8247 32.2031 19.6684 32.2031C20.7856 32.2031 21.6841 32.4609 22.3638 32.9766V31.8984C22.02 31.4609 21.6841 31.168 21.3559 31.0195C21.0356 30.8711 20.5942 30.8047 20.0317 30.8203C18.7739 30.8437 17.6216 31.0742 16.5747 31.5117C16.1059 31.707 15.6489 31.8828 15.2036 32.0391V31.1719C15.3052 31.0859 15.4536 30.957 15.6489 30.7852C15.6802 30.7461 15.6997 30.7227 15.7075 30.7148V27.6914H13.3052V26.2852H25.0473V27.6914ZM22.3638 35.1094C22.3638 34.7656 21.9536 34.457 21.1333 34.1836C20.4536 33.957 19.8872 33.8437 19.4341 33.8437C17.7856 33.8437 16.4653 34.4375 15.4731 35.625C15.0747 36.1016 14.8755 36.4922 14.8755 36.7969C15.0395 37.3672 15.6841 37.6523 16.8091 37.6523C18.2622 37.6523 19.5903 37.2891 20.7934 36.5625C21.8403 35.9297 22.3638 35.4453 22.3638 35.1094Z" fill="#FF5707"/>
<path d="M36.2627 27.6914H24.415V26.2852H36.2627V27.6914ZM35.29 31.8984C35.29 32.3594 35.0127 32.8789 34.458 33.457C33.9892 33.9492 33.497 34.3164 32.9814 34.5586L31.2236 32.5664C31.7548 32.5195 32.2588 32.3242 32.7353 31.9805C33.2822 31.5898 33.5556 31.1445 33.5556 30.6445C33.5556 30.3789 33.3838 30.1523 33.04 29.9648C32.7431 29.793 32.4502 29.707 32.1611 29.707C31.5595 29.707 30.915 29.9961 30.2275 30.5742C28.8291 31.7461 28.1298 33.043 28.1298 34.4648V39.4336L25.8798 38.2617V29.5898H28.1533V30.4805C28.4892 30.1445 29.1845 29.793 30.2392 29.4258C30.7548 29.2461 31.2861 29.1562 31.833 29.1562C32.9658 29.1562 33.9267 29.5898 34.7158 30.457C35.0986 30.8789 35.29 31.3594 35.29 31.8984Z" fill="#FF5707"/>
<path d="M39.5444 25.0547C39.5131 25.0859 39.4233 25.1016 39.2748 25.1016C39.1498 25.1016 39.0405 25.0859 38.9467 25.0547L38.185 23.4961C37.8725 23.0039 37.4467 22.6719 36.9077 22.5C36.3764 22.3203 36.0483 22.125 35.9233 21.9141C35.8061 21.5547 35.5795 21.0039 35.2436 20.2617V19.9922H35.7006C36.3022 20.1797 36.7905 20.3555 37.1655 20.5195C37.7827 20.793 38.1967 21.1094 38.4077 21.4687C38.5248 21.6641 38.7045 22.1641 38.9467 22.9687C39.1733 23.7266 39.3647 24.2539 39.5209 24.5508C39.5366 24.6914 39.5444 24.8594 39.5444 25.0547ZM40.2358 27.6914H35.4663V26.2852H40.2358V27.6914ZM38.8998 39.2695L36.9311 38.1797V29.1328H38.8998V39.2695Z" fill="#FF5707"/>
<path d="M54.2167 26.2852L54.1933 27.6914H52.998V29.9297C52.8573 30.2109 52.5292 30.8047 52.0136 31.7109L47.8534 39.0234C47.1581 39.0234 46.248 38.4727 45.123 37.3711C43.8886 36.168 43.2714 34.832 43.2714 33.3633C43.2714 32.6133 43.5136 31.9141 43.998 31.2656C44.2167 30.9687 44.3261 30.7461 44.3261 30.5977C44.3261 30.3242 44.0956 30.1875 43.6347 30.1875C43.2909 30.1875 42.9589 30.3281 42.6386 30.6094C42.5214 30.7109 42.2675 30.9883 41.8769 31.4414L40.3652 30.0703C40.8808 29.6328 41.3847 29.3633 41.8769 29.2617C42.1191 29.207 42.4316 29.1797 42.8144 29.1797C44.9316 29.1562 45.9902 30.2852 45.9902 32.5664C45.9902 32.8711 45.955 33.3281 45.8847 33.9375C45.8222 34.5469 45.7909 35.0039 45.7909 35.3086C45.7909 36.543 46.0097 37.2148 46.4472 37.3242C46.6894 37.3242 46.9745 37.0273 47.3027 36.4336L50.8769 29.9766V27.6914H39.4863V26.2852H54.2167Z" fill="#FF5707"/>
<path d="M65.5727 27.6914H57.768V29.5664C57.7992 29.5664 57.8305 29.582 57.8617 29.6133C57.893 29.6445 57.9203 29.6602 57.9437 29.6602C57.8812 29.6602 57.8461 29.6562 57.8383 29.6484C57.8383 29.6094 58.4203 29.4844 59.5844 29.2734C60.0141 29.1953 60.4398 29.1562 60.8617 29.1562C62.6195 29.1562 63.7484 29.6484 64.2484 30.6328C64.5844 31.2891 64.7523 32.6133 64.7523 34.6055V39.1172C64.5883 39.0547 63.9672 38.8008 62.8891 38.3555C62.8891 38.1055 62.8383 37.9453 62.7367 37.875C62.3227 38.1172 61.9828 38.3008 61.7172 38.4258C60.8734 38.8242 59.893 39.0234 58.7758 39.0234C57.2367 39.0234 56.0492 38.5391 55.2133 37.5703C54.807 37.1016 54.6039 36.5781 54.6039 36C54.6039 35.3516 54.9242 34.707 55.5648 34.0664C56.807 32.8242 58.35 32.2031 60.1937 32.2031C61.3109 32.2031 62.2094 32.4609 62.8891 32.9766V31.8984C62.5453 31.4609 62.2094 31.168 61.8812 31.0195C61.5609 30.8711 61.1195 30.8047 60.557 30.8203C59.2992 30.8437 58.1469 31.0742 57.1 31.5117C56.6312 31.707 56.1742 31.8828 55.7289 32.0391V31.1719C55.8305 31.0859 55.9789 30.957 56.1742 30.7852C56.2055 30.7461 56.225 30.7227 56.2328 30.7148V27.6914H53.8305V26.2852H65.5727V27.6914ZM62.8891 35.1094C62.8891 34.7656 62.4789 34.457 61.6586 34.1836C60.9789 33.957 60.4125 33.8437 59.9594 33.8437C58.3109 33.8437 56.9906 34.4375 55.9984 35.625C55.6 36.1016 55.4008 36.4922 55.4008 36.7969C55.5648 37.3672 56.2094 37.6523 57.3344 37.6523C58.7875 37.6523 60.1156 37.2891 61.3187 36.5625C62.3656 35.9297 62.8891 35.4453 62.8891 35.1094Z" fill="#FF5707"/>
<path d="M76.788 27.6914H64.9403V26.2852H76.788V27.6914ZM75.8153 31.8984C75.8153 32.3594 75.538 32.8789 74.9833 33.457C74.5145 33.9492 74.0223 34.3164 73.5067 34.5586L71.7489 32.5664C72.2802 32.5195 72.7841 32.3242 73.2606 31.9805C73.8075 31.5898 74.0809 31.1445 74.0809 30.6445C74.0809 30.3789 73.9091 30.1523 73.5653 29.9648C73.2684 29.793 72.9755 29.707 72.6864 29.707C72.0848 29.707 71.4403 29.9961 70.7528 30.5742C69.3544 31.7461 68.6552 33.043 68.6552 34.4648V39.4336L66.4052 38.2617V29.5898H68.6786V30.4805C69.0145 30.1445 69.7098 29.793 70.7645 29.4258C71.2802 29.2461 71.8114 29.1562 72.3583 29.1562C73.4911 29.1562 74.452 29.5898 75.2411 30.457C75.6239 30.8789 75.8153 31.3594 75.8153 31.8984Z" fill="#FF5707"/>
</svg>
